<svg width="189" height="63" viewBox="0 0 189 63" fill="none" xmlns="http://www.w3.org/2000/svg">
<path d="M43.6532 5.95278L39.0705 14.9754C39.0705 14.9754 29.6344 9.0686 21.0203 14.237C21.0203 14.237 10.8459 19.814 12.9822 33.0255C12.9822 33.0255 14.8674 48.6145 29.9642 51.6467C29.9642 51.6467 39.4003 54.6837 48.1768 45.8236L54.4921 52.4687C54.4921 52.4687 46.454 63.2978 31.4409 61.9048C31.4409 61.9048 12.0814 61.7424 2.89144 40.3303C2.89144 40.3303 -5.88506 21.7091 8.8819 7.1046C8.8819 7.1046 23.7227 -7.99216 43.6581 5.9577L43.6532 5.95278Z" fill="#FDFEFF"/>
<path d="M37.7561 17.3577L35.1325 22.6098C35.1325 22.6098 28.2413 18.8344 23.5651 26.5477C23.5651 26.5477 20.0358 33.5226 26.1887 40.1677C26.1887 40.1677 34.3942 48.2896 42.4323 39.4294L46.1241 43.6134C46.1241 43.6134 41.1181 51.0805 30.289 48.6194C30.289 48.6194 17.1611 45.5823 16.2603 30.2443C16.2603 30.2443 15.2267 18.7261 27.0058 15.7235C27.0058 15.7235 32.4794 14.5421 37.7512 17.3626L37.7561 17.3577Z" fill="#FDFEFF"/>
<path d="M35.3789 27.3057L47.2516 7.12421C47.2516 7.12421 47.7438 6.01669 48.7873 6.50892L53.1534 10.2597C53.1534 10.2597 54.0739 11.2442 53.3996 12.0416L38.5735 29.762L35.374 27.3008L35.3789 27.3057Z" fill="#FDFEFF"/>
<path d="M35.9004 31.6424C36.5452 33.124 36.0235 34.9256 34.6698 35.5212C33.3162 36.1119 31.3916 35.1225 30.7418 33.6409C30.097 32.1592 30.6729 30.4807 32.0265 29.89C33.3802 29.2994 35.2507 30.1608 35.9004 31.6424Z" fill="#FDFEFF"/>
<path d="M129.972 31.7212V32.3759C129.972 32.7204 129.834 32.8927 129.455 32.8927H128.18C127.801 32.8927 127.663 32.7204 127.663 32.3759V31.859C127.663 30.274 126.802 29.2453 123.74 29.2453C120.678 29.2453 119.817 30.2789 119.817 31.859V40.222C119.817 41.8415 120.678 42.8702 123.74 42.8702C126.802 42.8702 127.663 41.8365 127.663 40.222V39.464C127.663 39.085 127.801 38.9471 128.18 38.9471H129.455C129.834 38.9471 129.972 39.085 129.972 39.464V40.3943C129.972 43.0425 128.387 44.8342 123.671 44.8342C118.956 44.8342 117.439 43.0425 117.439 40.3943V31.7212C117.439 29.073 118.99 27.2812 123.706 27.2812C128.421 27.2812 129.972 29.073 129.972 31.7212Z" fill="#FDFEFF"/>
<path d="M136.68 29.3141C137.679 28.4872 139.639 27.2812 142.533 27.2812C145.732 27.2812 147.283 29.0729 147.283 31.5144V44.0466C147.283 44.3912 147.145 44.5635 146.8 44.5635H145.422C145.078 44.5635 144.905 44.3912 144.905 44.0466V32.0312C144.905 30.4807 144.078 29.4175 141.878 29.4175C139.328 29.4175 137.473 30.7268 136.68 31.347V44.0466C136.68 44.3912 136.542 44.5635 136.198 44.5635H134.82C134.441 44.5635 134.303 44.3912 134.303 44.0466V21.02C134.303 20.6755 134.441 20.5032 134.82 20.5032H136.198C136.542 20.5032 136.68 20.6755 136.68 21.02V29.3141Z" fill="#FDFEFF"/>
<path d="M154.888 24.2195C154.888 24.5641 154.75 24.7364 154.406 24.7364H153.028C152.649 24.7364 152.511 24.5641 152.511 24.2195V21.02C152.511 20.6755 152.649 20.5032 153.028 20.5032H154.406C154.75 20.5032 154.888 20.6755 154.888 21.02V24.2195ZM154.888 44.0466C154.888 44.3912 154.75 44.5635 154.406 44.5635H153.028C152.649 44.5635 152.511 44.3912 152.511 44.0466V28.0737C152.511 27.7291 152.649 27.5569 153.028 27.5569H154.406C154.75 27.5569 154.888 27.7291 154.888 28.0737V44.0466Z" fill="#FDFEFF"/>
<path d="M172.511 31.7212V32.3759C172.511 32.7204 172.373 32.8927 171.994 32.8927H170.719C170.34 32.8927 170.202 32.7204 170.202 32.3759V31.859C170.202 30.274 169.341 29.2453 166.279 29.2453C163.217 29.2453 162.356 30.2789 162.356 31.859V40.222C162.356 41.8415 163.217 42.8702 166.279 42.8702C169.341 42.8702 170.202 41.8365 170.202 40.222V39.464C170.202 39.085 170.34 38.9471 170.719 38.9471H171.994C172.373 38.9471 172.511 39.085 172.511 39.464V40.3943C172.511 43.0425 170.926 44.8342 166.21 44.8342C161.495 44.8342 159.979 43.0425 159.979 40.3943V31.7212C159.979 29.073 161.529 27.2812 166.245 27.2812C170.96 27.2812 172.511 29.073 172.511 31.7212Z" fill="#FDFEFF"/>
<path d="M176.605 31.6523C176.605 29.073 178.156 27.2812 182.803 27.2812C187.449 27.2812 189 29.073 189 31.6523V44.0467C189 44.3912 188.862 44.5635 188.517 44.5635H187.277C186.898 44.5635 186.795 44.3912 186.76 44.0467L186.691 42.8062C185.692 43.5987 183.767 44.8392 181.011 44.8392C177.811 44.8392 176.261 43.013 176.261 40.7783V39.0554C176.261 36.8207 177.742 34.9945 180.735 34.9945H186.657V31.8984C186.657 30.3479 185.83 29.2502 182.768 29.2502C179.706 29.2502 178.845 30.2839 178.845 31.8295V32.2429C178.845 32.622 178.707 32.7942 178.328 32.7942H177.088C176.743 32.7942 176.605 32.622 176.605 32.2429V31.6572V31.6523ZM186.657 40.9112V36.8847H181.183C179.322 36.8847 178.569 37.8495 178.569 39.3655V40.4681C178.569 41.9842 179.5 42.8456 181.562 42.8456C184.043 42.8456 185.864 41.5363 186.657 40.9161V40.9112Z" fill="#FDFEFF"/>
<path d="M52.9224 29.3141C53.9216 28.4872 55.8807 27.2812 58.775 27.2812C61.9746 27.2812 63.5251 29.0729 63.5251 31.5144V44.0466C63.5251 44.3912 63.3873 44.5635 63.0427 44.5635H61.6644C61.3199 44.5635 61.1476 44.3912 61.1476 44.0466V32.0312C61.1476 30.4807 60.3206 29.4175 58.1204 29.4175C55.5755 29.4175 53.7149 30.7268 52.9224 31.347V44.0466C52.9224 44.3912 52.7846 44.5635 52.44 44.5635H51.0618C50.6827 44.5635 50.5449 44.3912 50.5449 44.0466V21.02C50.5449 20.6755 50.6827 20.5032 51.0618 20.5032H52.44C52.7846 20.5032 52.9224 20.6755 52.9224 21.02V29.3141Z" fill="#FDFEFF"/>
<path d="M71.1304 24.2195C71.1304 24.5641 70.9926 24.7364 70.648 24.7364H69.2698C68.8908 24.7364 68.7529 24.5641 68.7529 24.2195V21.02C68.7529 20.6755 68.8908 20.5032 69.2698 20.5032H70.648C70.9926 20.5032 71.1304 20.6755 71.1304 21.02V24.2195ZM71.1304 44.0466C71.1304 44.3912 70.9926 44.5635 70.648 44.5635H69.2698C68.8908 44.5635 68.7529 44.3912 68.7529 44.0466V28.0737C68.7529 27.7291 68.8908 27.5569 69.2698 27.5569H70.648C70.9926 27.5569 71.1304 27.7291 71.1304 28.0737V44.0466Z" fill="#FDFEFF"/>
<path d="M88.7529 31.7212V32.3759C88.7529 32.7204 88.6151 32.8927 88.2361 32.8927H86.9612C86.5822 32.8927 86.4444 32.7204 86.4444 32.3759V31.859C86.4444 30.274 85.583 29.2453 82.5213 29.2453C79.4596 29.2453 78.5982 30.2789 78.5982 31.859V40.222C78.5982 41.8415 79.4596 42.8702 82.5213 42.8702C85.583 42.8702 86.4444 41.8365 86.4444 40.222V39.464C86.4444 39.085 86.5822 38.9471 86.9612 38.9471H88.2361C88.6151 38.9471 88.7529 39.085 88.7529 39.464V40.3943C88.7529 43.0425 87.1679 44.8342 82.4524 44.8342C77.7368 44.8342 76.2207 43.0425 76.2207 40.3943V31.7212C76.2207 29.073 77.7712 27.2812 82.4868 27.2812C87.2024 27.2812 88.7529 29.073 88.7529 31.7212Z" fill="#FDFEFF"/>
<path d="M92.8475 31.6523C92.8475 29.0681 94.398 27.2812 99.0447 27.2812C103.691 27.2812 105.242 29.073 105.242 31.6523V44.0418C105.242 44.3863 105.104 44.5586 104.76 44.5586H103.519C103.14 44.5586 103.037 44.3863 103.002 44.0418L102.933 42.8013C101.934 43.5938 100.009 44.8342 97.253 44.8342C94.0535 44.8342 92.5029 43.0081 92.5029 40.7733V39.0505C92.5029 36.8158 93.9845 34.9896 96.9773 34.9896H102.899V31.8935C102.899 30.3429 102.072 29.2453 99.0102 29.2453C95.9486 29.2453 95.0871 30.2789 95.0871 31.8295V32.2429C95.0871 32.622 94.9493 32.7942 94.5703 32.7942H93.3299C92.9853 32.7942 92.8475 32.622 92.8475 32.2429V31.6572V31.6523ZM102.899 40.9112V36.8847H97.4252C95.5646 36.8847 94.8066 37.8495 94.8066 39.3655V40.4681C94.8066 41.9842 95.7369 42.8456 97.7994 42.8456C100.28 42.8456 102.101 41.5363 102.894 40.9161L102.899 40.9112Z" fill="#FDFEFF"/>
<path d="M77.4403 58.4297C77.3616 58.4297 77.332 58.3854 77.332 58.2968V52.4491C77.332 52.3605 77.3665 52.3162 77.4502 52.3162H79.2665C80.753 52.3162 81.2207 52.9118 81.2207 53.6304V57.1203C81.2207 57.839 80.753 58.4346 79.2665 58.4346H77.4403V58.4297ZM77.9621 52.8576V57.8784H79.2665C80.2313 57.8784 80.5808 57.5387 80.5808 57.017V53.7239C80.5808 53.2022 80.2313 52.8625 79.2665 52.8625H77.9621V52.8576Z" fill="#FDFEFF"/>
<path d="M83.2638 53.1135C83.2638 53.2021 83.2293 53.2464 83.1358 53.2464H82.7765C82.678 53.2464 82.6436 53.2021 82.6436 53.1135V52.2767C82.6436 52.1881 82.678 52.1438 82.7765 52.1438H83.1358C83.2244 52.1438 83.2638 52.1881 83.2638 52.2767V53.1135ZM83.2638 58.2967C83.2638 58.3853 83.2293 58.4296 83.1358 58.4296H82.7765C82.678 58.4296 82.6436 58.3853 82.6436 58.2967V54.1226C82.6436 54.034 82.678 53.9897 82.7765 53.9897H83.1358C83.2244 53.9897 83.2638 54.034 83.2638 54.1226V58.2967Z" fill="#FDFEFF"/>
<path d="M84.5977 57.3516V55.0676C84.5977 54.3834 84.9865 53.9158 85.8479 53.9158C86.606 53.9158 87.1277 54.2554 87.3788 54.4671L87.3985 54.1274C87.4083 54.0388 87.4329 53.9945 87.5314 53.9945H87.8562C87.9547 53.9945 87.9891 54.0388 87.9891 54.1274V59.1285C87.9891 59.8226 87.5412 60.2902 86.3057 60.2902H85.08C84.9914 60.2902 84.9471 60.2557 84.9471 60.1622V59.8915C84.9471 59.8029 84.9914 59.7635 85.08 59.7635H86.3057C87.108 59.7635 87.3689 59.4829 87.3689 59.0694V57.9816C87.0982 58.1785 86.5961 58.5034 85.8479 58.5034C84.9865 58.5034 84.5977 58.0358 84.5977 57.3516ZM85.2179 57.263C85.2179 57.6321 85.4344 57.9373 86.0104 57.9373C86.6749 57.9373 87.1622 57.5878 87.3689 57.4352V54.9987C87.1622 54.8362 86.6749 54.4868 86.0104 54.4868C85.4344 54.4868 85.2179 54.7919 85.2179 55.1611V57.2679V57.263Z" fill="#FDFEFF"/>
<path d="M90.0313 53.1135C90.0313 53.2021 89.9969 53.2464 89.9034 53.2464H89.544C89.4456 53.2464 89.4111 53.2021 89.4111 53.1135V52.2767C89.4111 52.1881 89.4456 52.1438 89.544 52.1438H89.9034C89.992 52.1438 90.0313 52.1881 90.0313 52.2767V53.1135ZM90.0313 58.2967C90.0313 58.3853 89.9969 58.4296 89.9034 58.4296H89.544C89.4456 58.4296 89.4111 58.3853 89.4111 58.2967V54.1226C89.4111 54.034 89.4456 53.9897 89.544 53.9897H89.9034C89.992 53.9897 90.0313 54.034 90.0313 54.1226V58.2967Z" fill="#FDFEFF"/>
<path d="M93.2852 54.0043C93.3738 54.0043 93.4181 54.0388 93.4181 54.1323V54.3834C93.4181 54.472 93.3738 54.5163 93.2852 54.5163H92.2761V57.2088C92.2761 57.6321 92.5173 57.9028 93.3196 57.9028H93.4722C93.5608 57.9028 93.6051 57.9373 93.6051 58.0357V58.2966C93.6051 58.395 93.5608 58.4295 93.4722 58.4295H93.236C92.0054 58.4295 91.6411 57.9963 91.6411 57.2678V54.5163H91.0997C91.0111 54.5163 90.9717 54.472 90.9717 54.3834V54.1668C90.9717 54.0782 91.0061 54.0388 91.0997 54.0339L91.5673 54.0043H91.6411V53.0494C91.6411 52.9608 91.6854 52.9165 91.774 52.9165H92.1432C92.2318 52.9165 92.2712 52.9608 92.2712 53.0494V54.0043H93.2802H93.2852Z" fill="#FDFEFF"/>
<path d="M94.5213 55.0577C94.5213 54.3834 94.9249 53.9158 96.1407 53.9158C97.3565 53.9158 97.7601 54.3834 97.7601 55.0577V58.2966C97.7601 58.3852 97.7257 58.4295 97.6322 58.4295H97.3073C97.2088 58.4295 97.1793 58.3852 97.1744 58.2966L97.1547 57.9718C96.8938 58.1785 96.3917 58.5034 95.6682 58.5034C94.8314 58.5034 94.4277 58.0259 94.4277 57.4402V56.9922C94.4277 56.4065 94.8166 55.929 95.5992 55.929H97.1449V55.1217C97.1449 54.7181 96.9283 54.4277 96.1259 54.4277C95.3236 54.4277 95.1021 54.6984 95.1021 55.1021V55.2103C95.1021 55.3088 95.0676 55.3531 94.9692 55.3531H94.6443C94.5557 55.3531 94.5163 55.3088 94.5163 55.2103V55.0577H94.5213ZM97.1498 57.4795V56.4262H95.7174C95.2301 56.4262 95.0332 56.6772 95.0332 57.0759V57.3614C95.0332 57.7552 95.2744 57.9816 95.8158 57.9816C96.4656 57.9816 96.943 57.642 97.1498 57.4795Z" fill="#FDFEFF"/>
<path d="M99.7481 58.2967C99.7481 58.3853 99.7137 58.4296 99.6202 58.4296H99.2608C99.1624 58.4296 99.1279 58.3853 99.1279 58.2967V52.2767C99.1279 52.1881 99.1624 52.1438 99.2608 52.1438H99.6202C99.7088 52.1438 99.7481 52.1881 99.7481 52.2767V58.2967Z" fill="#FDFEFF"/>
<path d="M103.42 58.4297C103.341 58.4297 103.302 58.3854 103.302 58.2968V52.4491C103.302 52.3605 103.336 52.3162 103.43 52.3162H106.496C106.585 52.3162 106.629 52.3506 106.629 52.4491V52.7296C106.629 52.8281 106.585 52.8625 106.496 52.8625H103.932V54.9594H106.334C106.432 54.9594 106.467 54.9939 106.467 55.0924V55.3532C106.467 55.4517 106.432 55.4861 106.334 55.4861H103.932V57.8784H106.605C106.693 57.8784 106.742 57.9128 106.742 58.0064V58.2919C106.742 58.3903 106.698 58.4248 106.605 58.4248H103.42V58.4297Z" fill="#FDFEFF"/>
<path d="M108.441 54.1225L108.461 54.4622C108.712 54.2456 109.234 53.9109 110.002 53.9109C110.838 53.9109 111.242 54.3785 111.242 55.0184V58.2918C111.242 58.3804 111.208 58.4247 111.114 58.4247H110.755C110.666 58.4247 110.617 58.3804 110.617 58.2918V55.1513C110.617 54.7477 110.4 54.4671 109.824 54.4671C109.16 54.4671 108.673 54.8067 108.466 54.9692V58.2918C108.466 58.3804 108.431 58.4247 108.338 58.4247H107.979C107.88 58.4247 107.846 58.3804 107.846 58.2918V54.1176C107.846 54.029 107.88 53.9847 107.979 53.9847H108.303C108.402 53.9847 108.431 54.029 108.436 54.1176L108.441 54.1225Z" fill="#FDFEFF"/>
<path d="M114.437 54.0043C114.526 54.0043 114.57 54.0388 114.57 54.1323V54.3834C114.57 54.472 114.526 54.5163 114.437 54.5163H113.428V57.2088C113.428 57.6321 113.67 57.9028 114.472 57.9028H114.625C114.713 57.9028 114.757 57.9373 114.757 58.0357V58.2966C114.757 58.395 114.713 58.4295 114.625 58.4295H114.388C113.158 58.4295 112.798 57.9963 112.798 57.2678V54.5163H112.257C112.168 54.5163 112.129 54.472 112.129 54.3834V54.1668C112.129 54.0782 112.163 54.0388 112.257 54.0339L112.725 54.0043H112.798V53.0494C112.798 52.9608 112.843 52.9165 112.931 52.9165H113.3C113.389 52.9165 113.428 52.9608 113.428 53.0494V54.0043H114.437Z" fill="#FDFEFF"/>
<path d="M118.862 56.1801C118.862 56.2588 118.828 56.3081 118.734 56.3081H116.189V57.3073C116.189 57.7208 116.406 58.0013 117.233 58.0013C118.06 58.0013 118.277 57.7208 118.277 57.3073V57.1547C118.277 57.0661 118.311 57.0267 118.405 57.0267H118.729C118.818 57.0267 118.862 57.0612 118.862 57.1547V57.3417C118.862 58.0358 118.459 58.5034 117.218 58.5034C115.978 58.5034 115.579 58.0358 115.579 57.3417V55.0726C115.579 54.3785 115.993 53.9109 117.233 53.9109C118.473 53.9109 118.862 54.3785 118.862 55.0726V56.1801ZM116.189 55.8306H118.277V55.1119C118.277 54.7083 118.025 54.4179 117.233 54.4179C116.441 54.4179 116.189 54.7034 116.189 55.1119V55.8306Z" fill="#FDFEFF"/>
<path d="M122.337 54.0487V54.344C122.337 54.4326 122.283 54.4769 122.194 54.4769C121.52 54.5064 120.944 54.9002 120.728 55.0824V58.2966C120.728 58.3852 120.693 58.4295 120.6 58.4295H120.24C120.142 58.4295 120.107 58.3852 120.107 58.2966V54.1225C120.107 54.0339 120.142 53.9896 120.24 53.9896H120.565C120.664 53.9896 120.693 54.0339 120.698 54.1225L120.723 54.5655C120.974 54.3292 121.525 53.9158 122.19 53.9158C122.278 53.9158 122.332 53.9601 122.332 54.0487H122.337Z" fill="#FDFEFF"/>
<path d="M125.034 54.0043C125.123 54.0043 125.167 54.0388 125.167 54.1323V54.3834C125.167 54.472 125.123 54.5163 125.034 54.5163H124.025V57.2088C124.025 57.6321 124.266 57.9028 125.069 57.9028H125.221C125.31 57.9028 125.354 57.9373 125.354 58.0357V58.2966C125.354 58.395 125.31 58.4295 125.221 58.4295H124.99C123.759 58.4295 123.395 57.9963 123.395 57.2678V54.5163H122.854C122.765 54.5163 122.726 54.472 122.726 54.3834V54.1668C122.726 54.0782 122.76 54.0388 122.854 54.0339L123.321 54.0043H123.395V53.0494C123.395 52.9608 123.439 52.9165 123.528 52.9165H123.897C123.986 52.9165 124.025 52.9608 124.025 53.0494V54.0043H125.034Z" fill="#FDFEFF"/>
<path d="M126.27 55.0577C126.27 54.3834 126.674 53.9158 127.89 53.9158C129.106 53.9158 129.509 54.3834 129.509 55.0577V58.2966C129.509 58.3852 129.475 58.4295 129.381 58.4295H129.056C128.958 58.4295 128.928 58.3852 128.923 58.2966L128.904 57.9718C128.643 58.1785 128.141 58.5034 127.417 58.5034C126.58 58.5034 126.177 58.0259 126.177 57.4402V56.9922C126.177 56.4065 126.566 55.929 127.348 55.929H128.894V55.1217C128.894 54.7181 128.677 54.4277 127.875 54.4277C127.073 54.4277 126.851 54.6984 126.851 55.1021V55.2103C126.851 55.3088 126.817 55.3531 126.718 55.3531H126.393C126.305 55.3531 126.265 55.3088 126.265 55.2103V55.0577H126.27ZM128.899 57.4795V56.4262H127.466C126.979 56.4262 126.782 56.6772 126.782 57.0759V57.3614C126.782 57.7552 127.023 57.9816 127.565 57.9816C128.215 57.9816 128.692 57.642 128.899 57.4795Z" fill="#FDFEFF"/>
<path d="M131.497 53.1135C131.497 53.2021 131.463 53.2464 131.369 53.2464H131.01C130.911 53.2464 130.877 53.2021 130.877 53.1135V52.2767C130.877 52.1881 130.911 52.1438 131.01 52.1438H131.369C131.458 52.1438 131.497 52.1881 131.497 52.2767V53.1135ZM131.497 58.2967C131.497 58.3853 131.463 58.4296 131.369 58.4296H131.01C130.911 58.4296 130.877 58.3853 130.877 58.2967V54.1226C130.877 54.034 130.911 53.9897 131.01 53.9897H131.369C131.458 53.9897 131.497 54.034 131.497 54.1226V58.2967Z" fill="#FDFEFF"/>
<path d="M133.521 54.1225L133.541 54.4622C133.792 54.2456 134.314 53.9109 135.082 53.9109C135.919 53.9109 136.322 54.3785 136.322 55.0184V58.2918C136.322 58.3804 136.288 58.4247 136.194 58.4247H135.835C135.746 58.4247 135.697 58.3804 135.697 58.2918V55.1513C135.697 54.7477 135.48 54.4671 134.905 54.4671C134.24 54.4671 133.753 54.8067 133.546 54.9692V58.2918C133.546 58.3804 133.512 58.4247 133.418 58.4247H133.059C132.96 58.4247 132.926 58.3804 132.926 58.2918V54.1176C132.926 54.029 132.96 53.9847 133.059 53.9847H133.384C133.482 53.9847 133.512 54.029 133.516 54.1176L133.521 54.1225Z" fill="#FDFEFF"/>
<path d="M138.147 53.9847C138.246 53.9847 138.28 54.029 138.28 54.1176L138.29 54.4523C138.531 54.2456 139.018 53.9109 139.786 53.9109C140.387 53.9109 140.766 54.1521 140.928 54.5213C141.155 54.3342 141.637 53.9109 142.503 53.9109C143.37 53.9109 143.754 54.3785 143.754 55.0184V58.2918C143.754 58.3804 143.709 58.4247 143.621 58.4247H143.261C143.173 58.4247 143.129 58.3804 143.129 58.2918V55.1513C143.129 54.7477 142.912 54.4671 142.336 54.4671C141.642 54.4671 141.194 54.8264 141.022 54.9889C141.032 55.0332 141.032 55.0972 141.032 55.1513V58.2918C141.032 58.3804 140.997 58.4247 140.904 58.4247H140.544C140.456 58.4247 140.411 58.3804 140.411 58.2918V55.1513C140.411 54.7477 140.195 54.4671 139.619 54.4671C138.954 54.4671 138.502 54.8067 138.315 54.9692V58.2918C138.315 58.3804 138.28 58.4247 138.187 58.4247H137.827C137.729 58.4247 137.694 58.3804 137.694 58.2918V54.1176C137.694 54.029 137.729 53.9847 137.827 53.9847H138.152H138.147Z" fill="#FDFEFF"/>
<path d="M148.308 56.1801C148.308 56.2588 148.273 56.3081 148.18 56.3081H145.635V57.3073C145.635 57.7208 145.851 58.0013 146.678 58.0013C147.505 58.0013 147.722 57.7208 147.722 57.3073V57.1547C147.722 57.0661 147.756 57.0267 147.85 57.0267H148.175C148.263 57.0267 148.308 57.0612 148.308 57.1547V57.3417C148.308 58.0358 147.904 58.5034 146.659 58.5034C145.413 58.5034 145.02 58.0358 145.02 57.3417V55.0726C145.02 54.3785 145.433 53.9109 146.673 53.9109C147.914 53.9109 148.303 54.3785 148.303 55.0726V56.1801H148.308ZM145.635 55.8306H147.722V55.1119C147.722 54.7083 147.471 54.4179 146.678 54.4179C145.886 54.4179 145.635 54.7034 145.635 55.1119V55.8306Z" fill="#FDFEFF"/>
<path d="M150.142 54.1225L150.162 54.4622C150.413 54.2456 150.935 53.9109 151.703 53.9109C152.54 53.9109 152.943 54.3785 152.943 55.0184V58.2918C152.943 58.3804 152.909 58.4247 152.815 58.4247H152.456C152.367 58.4247 152.323 58.3804 152.323 58.2918V55.1513C152.323 54.7477 152.106 54.4671 151.531 54.4671C150.866 54.4671 150.379 54.8067 150.172 54.9692V58.2918C150.172 58.3804 150.138 58.4247 150.044 58.4247H149.685C149.586 58.4247 149.552 58.3804 149.552 58.2918V54.1176C149.552 54.029 149.586 53.9847 149.685 53.9847H150.01C150.108 53.9847 150.138 54.029 150.142 54.1176V54.1225Z" fill="#FDFEFF"/>
<path d="M156.139 54.0043C156.227 54.0043 156.272 54.0388 156.272 54.1323V54.3834C156.272 54.472 156.227 54.5163 156.139 54.5163H155.13V57.2088C155.13 57.6321 155.371 57.9028 156.173 57.9028H156.326C156.414 57.9028 156.459 57.9373 156.459 58.0357V58.2966C156.459 58.395 156.414 58.4295 156.326 58.4295H156.089C154.859 58.4295 154.495 57.9963 154.495 57.2678V54.5163H153.953C153.865 54.5163 153.825 54.472 153.825 54.3834V54.1668C153.825 54.0782 153.86 54.0388 153.953 54.0339L154.421 54.0043H154.495V53.0494C154.495 52.9608 154.539 52.9165 154.628 52.9165H154.997C155.085 52.9165 155.125 52.9608 155.125 53.0494V54.0043H156.134H156.139Z" fill="#FDFEFF"/>
</svg>
