<svg width="352" height="91" viewBox="0 0 352 91" fill="none" xmlns="http://www.w3.org/2000/svg">
<path d="M230.101 89.4725L213.053 59.9885H220.897L232.833 81.3097L244.216 59.9885H251.061L234.852 89.4725H230.101Z" fill="white"/>
<path d="M265.92 59.9885H259.064V89.4725H265.92V59.9885Z" fill="white"/>
<path d="M294.723 65.2497V89.4725H287.846V65.2497H274.315V59.9885H308.295V65.2497H294.712H294.723Z" fill="white"/>
<path d="M330.817 65.7068L337.184 77.6959H324.26L330.817 65.7068ZM327.756 59.9885L311.069 89.4725H317.904L321.337 83.0209H340.033L343.583 89.4725H351.278L334.367 59.9885H327.756Z" fill="white"/>
<path d="M17.0484 89.4725L0 59.9885H7.84398L19.78 81.3097L31.1633 59.9885H38.0082L21.7995 89.4725H17.0484Z" fill="white"/>
<path d="M52.8565 59.9885H46.001V89.4725H52.8565V59.9885Z" fill="white"/>
<path d="M77.898 89.4725L60.8496 59.9885H68.6936L80.6296 81.3097L92.013 59.9885H98.8578L82.6491 89.4725H77.898Z" fill="white"/>
<path d="M106.851 89.4725V59.9885H137.047V65.0053H113.717V71.5951H127.332V76.6118H113.717V83.9137H137.323V89.4725H106.851Z" fill="white"/>
<path d="M48.2764 54.4404C49.2329 51.4006 53.2187 45.3103 61.5091 45.3316C60.3931 48.1057 56.1735 53.8027 48.2764 54.4404Z" fill="white"/>
<path d="M157.603 90.6626H175.512C169.167 84.4661 161.248 73.763 157.603 61.4231V90.6626Z" fill="white"/>
<path d="M179.329 61.2319H165.15C166.883 66.4931 169.891 72.0945 174.684 77.7808C178.489 73.9332 182.55 68.2044 185.324 61.2319H179.35C179.35 61.2319 179.35 61.2744 179.34 61.2957C179.34 61.2744 179.34 61.2532 179.34 61.2319H179.329Z" fill="white"/>
<path d="M175.556 90.6628H193.242V61.2319H193.072C190.33 70.3301 184.845 80.1723 175.556 90.6628Z" fill="white"/>
<path d="M175.535 90.6839C175.535 90.6839 175.545 90.6626 175.556 90.6626H175.503L175.524 90.6839H175.535Z" fill="white"/>
<path d="M164.076 0C191.254 22.012 191.785 45.0125 185.312 61.2319H193.071C202.308 30.6 180.062 8.57736 164.076 0Z" fill="white"/>
<path d="M165.139 61.2322C160.728 47.8507 164.544 36.6374 168.03 31.6207C175.31 38.8163 178.584 54.3236 179.317 61.2322H179.339C184.058 39.5284 173.535 24.5313 167.679 19.7378C154.648 33.1725 153.681 48.2333 157.592 61.4235V61.2322H165.139Z" fill="white"/>
</svg>
