<svg width="352" height="91" viewBox="0 0 352 91" fill="none" xmlns="http://www.w3.org/2000/svg">
<path d="M230.462 89.7885L213.413 60.3044H221.257L233.193 81.6256L244.576 60.3044H251.421L235.213 89.7885H230.462Z" fill="#2690C1"/>
<path d="M266.28 60.3044H259.425V89.7885H266.28V60.3044Z" fill="#2690C1"/>
<path d="M295.083 65.5656V89.7885H288.206V65.5656H274.676V60.3044H308.656V65.5656H295.072H295.083Z" fill="#2690C1"/>
<path d="M331.178 66.0227L337.544 78.0119H324.62L331.178 66.0227ZM328.117 60.3044L311.43 89.7885H318.264L321.697 83.3368H340.393L343.943 89.7885H351.638L334.728 60.3044H328.117Z" fill="#2690C1"/>
<path d="M17.4088 89.7885L0.360352 60.3044H8.20433L20.1404 81.6256L31.5237 60.3044H38.3686L22.1598 89.7885H17.4088Z" fill="#2690C1"/>
<path d="M53.2168 60.3044H46.3613V89.7885H53.2168V60.3044Z" fill="#2690C1"/>
<path d="M78.2584 89.7885L61.21 60.3044H69.0539L80.99 81.6256L92.3733 60.3044H99.2182L83.0094 89.7885H78.2584Z" fill="#2690C1"/>
<path d="M107.211 89.7885V60.3044H137.407V65.3212H114.077V71.911H127.692V76.9277H114.077V84.2296H137.683V89.7885H107.211Z" fill="#2690C1"/>
<path d="M48.6367 54.7563C49.5933 51.7165 53.5791 45.6263 61.8694 45.6475C60.7534 48.4216 56.5338 54.1186 48.6367 54.7563Z" fill="#2690C1"/>
<path d="M157.963 90.9786H175.872C169.527 84.782 161.609 74.0789 157.963 61.739V90.9786Z" fill="#2690C1"/>
<path d="M179.689 61.5479H165.511C167.243 66.8091 170.251 72.4104 175.045 78.0967C178.85 74.2491 182.91 68.5203 185.684 61.5479H179.711C179.711 61.5479 179.711 61.5904 179.7 61.6116C179.7 61.5904 179.7 61.5691 179.7 61.5479H179.689Z" fill="#2690C1"/>
<path d="M175.916 90.9787H193.602V61.5479H193.432C190.69 70.646 185.205 80.4882 175.916 90.9787Z" fill="#2690C1"/>
<path d="M175.895 90.9998C175.895 90.9998 175.906 90.9785 175.916 90.9785H175.863L175.885 90.9998H175.895Z" fill="#2690C1"/>
<path d="M164.437 0.315918C191.614 22.328 192.146 45.3285 185.673 61.5478H193.432C202.668 30.9159 180.422 8.89328 164.437 0.315918Z" fill="#2690C1"/>
<path d="M165.499 61.5481C161.088 48.1666 164.904 36.9533 168.39 31.9366C175.671 39.1322 178.944 54.6395 179.678 61.5481H179.699C184.418 39.8443 173.896 24.8473 168.039 20.0537C155.009 33.4884 154.041 48.5493 157.953 61.7395V61.5481H165.499Z" fill="#2690C1"/>
</svg>
