<svg width="211" height="70" viewBox="0 0 211 70" fill="none" xmlns="http://www.w3.org/2000/svg">
<path d="M48.7097 7.02857L43.5928 17.103C43.5928 17.103 33.0567 10.5076 23.4384 16.2786C23.4384 16.2786 12.0779 22.5057 14.4632 37.2573C14.4632 37.2573 16.5682 54.6636 33.4249 58.0492C33.4249 58.0492 43.961 61.4403 53.7606 51.5473L60.8122 58.9671C60.8122 58.9671 51.837 71.0586 35.0737 69.5032C35.0737 69.5032 13.4574 69.3218 3.19614 45.4136C3.19614 45.4136 -6.60347 24.6217 9.88494 8.31467C9.88494 8.31467 26.4558 -8.54199 48.7152 7.03407L48.7097 7.02857Z" fill="#2690C1"/>
<path d="M42.125 19.7631L39.1956 25.6275C39.1956 25.6275 31.501 21.412 26.2797 30.0244C26.2797 30.0244 22.3389 37.8124 29.2091 45.2322C29.2091 45.2322 38.3712 54.3008 47.3463 44.4078L51.4684 49.0795C51.4684 49.0795 45.8789 57.4172 33.7874 54.6691C33.7874 54.6691 19.1292 51.278 18.1234 34.152C18.1234 34.152 16.9692 21.291 30.1215 17.9384C30.1215 17.9384 36.2332 16.6193 42.1195 19.7686L42.125 19.7631Z" fill="#2690C1"/>
<path d="M39.4703 30.8708L52.727 8.33662C52.727 8.33662 53.2766 7.09999 54.4418 7.6496L59.3169 11.8377C59.3169 11.8377 60.3447 12.9369 59.5917 13.8273L43.0373 33.6134L39.4648 30.8653L39.4703 30.8708Z" fill="#2690C1"/>
<path d="M40.0521 35.7131C40.7721 37.3674 40.1895 39.379 38.6781 40.044C37.1666 40.7036 35.0176 39.5988 34.2921 37.9445C33.5722 36.2902 34.2152 34.416 35.7266 33.7564C37.2381 33.0969 39.3266 34.0587 40.0521 35.7131Z" fill="#2690C1"/>
<path d="M145.091 35.8008V36.5318C145.091 36.9165 144.937 37.1089 144.514 37.1089H143.09C142.667 37.1089 142.513 36.9165 142.513 36.5318V35.9547C142.513 34.1849 141.551 33.0362 138.133 33.0362C134.714 33.0362 133.752 34.1904 133.752 35.9547V45.2926C133.752 47.1008 134.714 48.2495 138.133 48.2495C141.551 48.2495 142.513 47.0953 142.513 45.2926V44.4462C142.513 44.023 142.667 43.8691 143.09 43.8691H144.514C144.937 43.8691 145.091 44.023 145.091 44.4462V45.485C145.091 48.4419 143.321 50.4425 138.056 50.4425C132.79 50.4425 131.098 48.4419 131.098 45.485V35.8008C131.098 32.8439 132.829 30.8433 138.094 30.8433C143.36 30.8433 145.091 32.8439 145.091 35.8008Z" fill="#2690C1"/>
<path d="M152.581 33.1132C153.697 32.1899 155.885 30.8433 159.116 30.8433C162.689 30.8433 164.42 32.8439 164.42 35.57V49.5632C164.42 49.9479 164.266 50.1403 163.881 50.1403H162.343C161.958 50.1403 161.765 49.9479 161.765 49.5632V36.1471C161.765 34.4158 160.842 33.2287 158.385 33.2287C155.538 33.2287 153.466 34.6906 152.581 35.3831V49.5632C152.581 49.9479 152.427 50.1403 152.043 50.1403H150.504C150.081 50.1403 149.927 49.9479 149.927 49.5632V23.8522C149.927 23.4675 150.081 23.2751 150.504 23.2751H152.043C152.427 23.2751 152.581 23.4675 152.581 23.8522V33.1132Z" fill="#2690C1"/>
<path d="M172.911 27.4247C172.911 27.8095 172.758 28.0018 172.373 28.0018H170.834C170.411 28.0018 170.257 27.8095 170.257 27.4247V23.8522C170.257 23.4675 170.411 23.2751 170.834 23.2751H172.373C172.758 23.2751 172.911 23.4675 172.911 23.8522V27.4247ZM172.911 49.5632C172.911 49.9479 172.758 50.1403 172.373 50.1403H170.834C170.411 50.1403 170.257 49.9479 170.257 49.5632V31.7282C170.257 31.3435 170.411 31.1511 170.834 31.1511H172.373C172.758 31.1511 172.911 31.3435 172.911 31.7282V49.5632Z" fill="#2690C1"/>
<path d="M192.589 35.8008V36.5318C192.589 36.9165 192.435 37.1089 192.012 37.1089H190.588C190.165 37.1089 190.011 36.9165 190.011 36.5318V35.9547C190.011 34.1849 189.049 33.0362 185.631 33.0362C182.212 33.0362 181.25 34.1904 181.25 35.9547V45.2926C181.25 47.1008 182.212 48.2495 185.631 48.2495C189.049 48.2495 190.011 47.0953 190.011 45.2926V44.4462C190.011 44.023 190.165 43.8691 190.588 43.8691H192.012C192.435 43.8691 192.589 44.023 192.589 44.4462V45.485C192.589 48.4419 190.819 50.4425 185.554 50.4425C180.288 50.4425 178.596 48.4419 178.596 45.485V35.8008C178.596 32.8439 180.327 30.8433 185.592 30.8433C190.858 30.8433 192.589 32.8439 192.589 35.8008Z" fill="#2690C1"/>
<path d="M197.161 35.7238C197.161 32.8439 198.892 30.8433 204.081 30.8433C209.269 30.8433 211 32.8439 211 35.7238V49.5631C211 49.9478 210.846 50.1402 210.462 50.1402H209.077C208.654 50.1402 208.538 49.9478 208.5 49.5631L208.423 48.1781C207.307 49.063 205.158 50.448 202.08 50.448C198.508 50.448 196.776 48.4089 196.776 45.9137V43.99C196.776 41.4948 198.431 39.4557 201.772 39.4557H208.384V35.9986C208.384 34.2674 207.461 33.0417 204.042 33.0417C200.624 33.0417 199.662 34.1959 199.662 35.9217V36.3834C199.662 36.8066 199.508 36.9989 199.085 36.9989H197.7C197.315 36.9989 197.161 36.8066 197.161 36.3834V35.7293V35.7238ZM208.384 46.0621V41.5662H202.273C200.195 41.5662 199.354 42.6435 199.354 44.3363V45.5674C199.354 47.2602 200.393 48.222 202.696 48.222C205.466 48.222 207.499 46.7601 208.384 46.0676V46.0621Z" fill="#2690C1"/>
<path d="M59.0599 33.1132C60.1756 32.1899 62.3631 30.8433 65.5948 30.8433C69.1673 30.8433 70.8986 32.8439 70.8986 35.57V49.5632C70.8986 49.9479 70.7447 50.1403 70.36 50.1403H68.821C68.4363 50.1403 68.244 49.9479 68.244 49.5632V36.1471C68.244 34.4158 67.3206 33.2287 64.8638 33.2287C62.0223 33.2287 59.9448 34.6906 59.0599 35.3831V49.5632C59.0599 49.9479 58.906 50.1403 58.5213 50.1403H56.9824C56.5592 50.1403 56.4053 49.9479 56.4053 49.5632V23.8522C56.4053 23.4675 56.5592 23.2751 56.9824 23.2751H58.5213C58.906 23.2751 59.0599 23.4675 59.0599 23.8522V33.1132Z" fill="#2690C1"/>
<path d="M79.39 27.4247C79.39 27.8095 79.2361 28.0018 78.8514 28.0018H77.3124C76.8892 28.0018 76.7354 27.8095 76.7354 27.4247V23.8522C76.7354 23.4675 76.8892 23.2751 77.3124 23.2751H78.8514C79.2361 23.2751 79.39 23.4675 79.39 23.8522V27.4247ZM79.39 49.5632C79.39 49.9479 79.2361 50.1403 78.8514 50.1403H77.3124C76.8892 50.1403 76.7354 49.9479 76.7354 49.5632V31.7282C76.7354 31.3435 76.8892 31.1511 77.3124 31.1511H78.8514C79.2361 31.1511 79.39 31.3435 79.39 31.7282V49.5632Z" fill="#2690C1"/>
<path d="M99.0674 35.801V36.532C99.0674 36.9167 98.9135 37.1091 98.4903 37.1091H97.0668C96.6436 37.1091 96.4897 36.9167 96.4897 36.532V35.9549C96.4897 34.1852 95.5279 33.0365 92.1093 33.0365C88.6907 33.0365 87.7289 34.1907 87.7289 35.9549V45.2928C87.7289 47.1011 88.6907 48.2498 92.1093 48.2498C95.5279 48.2498 96.4897 47.0956 96.4897 45.2928V44.4464C96.4897 44.0232 96.6436 43.8694 97.0668 43.8694H98.4903C98.9135 43.8694 99.0674 44.0232 99.0674 44.4464V45.4852C99.0674 48.4421 97.2976 50.4427 92.0323 50.4427C86.767 50.4427 85.0742 48.4421 85.0742 45.4852V35.801C85.0742 32.8441 86.8055 30.8435 92.0708 30.8435C97.3361 30.8435 99.0674 32.8441 99.0674 35.801Z" fill="#2690C1"/>
<path d="M103.639 35.7241C103.639 32.8386 105.37 30.8435 110.558 30.8435C115.747 30.8435 117.478 32.8441 117.478 35.7241V49.5579C117.478 49.9426 117.324 50.1349 116.939 50.1349H115.554C115.131 50.1349 115.016 49.9426 114.977 49.5579L114.9 48.1728C113.785 49.0577 111.636 50.4427 108.558 50.4427C104.985 50.4427 103.254 48.4037 103.254 45.9084V43.9848C103.254 41.4895 104.908 39.4505 108.25 39.4505H114.862V35.9934C114.862 34.2621 113.938 33.0365 110.52 33.0365C107.101 33.0365 106.139 34.1907 106.139 35.9219V36.3836C106.139 36.8068 105.985 36.9992 105.562 36.9992H104.177C103.793 36.9992 103.639 36.8068 103.639 36.3836V35.7296V35.7241ZM114.862 46.0623V41.5665H108.75C106.673 41.5665 105.826 42.6437 105.826 44.3365V45.5677C105.826 47.2605 106.865 48.2223 109.168 48.2223C111.938 48.2223 113.971 46.7603 114.856 46.0678L114.862 46.0623Z" fill="#2690C1"/>
<path d="M86.4354 65.6231C86.3474 65.6231 86.3145 65.5736 86.3145 65.4747V58.9453C86.3145 58.8463 86.3529 58.7969 86.4464 58.7969H88.4744C90.1343 58.7969 90.6564 59.4619 90.6564 60.2643V64.1611C90.6564 64.9635 90.1343 65.6286 88.4744 65.6286H86.4354V65.6231ZM87.018 59.4015V65.0075H88.4744C89.5517 65.0075 89.9419 64.6283 89.9419 64.0457V60.3688C89.9419 59.7862 89.5517 59.4069 88.4744 59.4069H87.018V59.4015Z" fill="#2690C1"/>
<path d="M92.9376 59.6872C92.9376 59.7862 92.8992 59.8356 92.7947 59.8356H92.3935C92.2836 59.8356 92.2451 59.7862 92.2451 59.6872V58.7529C92.2451 58.654 92.2836 58.6045 92.3935 58.6045H92.7947C92.8937 58.6045 92.9376 58.654 92.9376 58.7529V59.6872ZM92.9376 65.4747C92.9376 65.5736 92.8992 65.6231 92.7947 65.6231H92.3935C92.2836 65.6231 92.2451 65.5736 92.2451 65.4747V60.8139C92.2451 60.715 92.2836 60.6655 92.3935 60.6655H92.7947C92.8937 60.6655 92.9376 60.715 92.9376 60.8139V65.4747Z" fill="#2690C1"/>
<path d="M94.4268 64.4196V61.8694C94.4268 61.1054 94.8609 60.5833 95.8228 60.5833C96.6692 60.5833 97.2518 60.9625 97.5321 61.1988L97.5541 60.8196C97.5651 60.7207 97.5925 60.6712 97.7025 60.6712H98.0652C98.1751 60.6712 98.2136 60.7207 98.2136 60.8196V66.4037C98.2136 67.1786 97.7134 67.7008 96.3339 67.7008H94.9654C94.8664 67.7008 94.817 67.6623 94.817 67.5579V67.2556C94.817 67.1566 94.8664 67.1127 94.9654 67.1127H96.3339C97.2298 67.1127 97.5211 66.7994 97.5211 66.3377V65.1231C97.2188 65.3429 96.6582 65.7057 95.8228 65.7057C94.8609 65.7057 94.4268 65.1835 94.4268 64.4196ZM95.1193 64.3206C95.1193 64.7328 95.3611 65.0736 96.0041 65.0736C96.7461 65.0736 97.2902 64.6834 97.5211 64.513V61.7924C97.2902 61.611 96.7461 61.2208 96.0041 61.2208C95.3611 61.2208 95.1193 61.5616 95.1193 61.9738V64.3261V64.3206Z" fill="#2690C1"/>
<path d="M100.494 59.6872C100.494 59.7862 100.456 59.8356 100.351 59.8356H99.9502C99.8402 59.8356 99.8018 59.7862 99.8018 59.6872V58.7529C99.8018 58.654 99.8402 58.6045 99.9502 58.6045H100.351C100.45 58.6045 100.494 58.654 100.494 58.7529V59.6872ZM100.494 65.4747C100.494 65.5736 100.456 65.6231 100.351 65.6231H99.9502C99.8402 65.6231 99.8018 65.5736 99.8018 65.4747V60.8139C99.8018 60.715 99.8402 60.6655 99.9502 60.6655H100.351C100.45 60.6655 100.494 60.715 100.494 60.8139V65.4747Z" fill="#2690C1"/>
<path d="M104.126 60.6822C104.225 60.6822 104.275 60.7206 104.275 60.8251V61.1054C104.275 61.2043 104.225 61.2538 104.126 61.2538H102.999V64.2602C102.999 64.7328 103.269 65.0351 104.165 65.0351H104.335C104.434 65.0351 104.483 65.0736 104.483 65.1835V65.4748C104.483 65.5847 104.434 65.6232 104.335 65.6232H104.071C102.697 65.6232 102.29 65.1395 102.29 64.3261V61.2538H101.686C101.587 61.2538 101.543 61.2043 101.543 61.1054V60.8635C101.543 60.7646 101.581 60.7207 101.686 60.7152L102.208 60.6822H102.29V59.6159C102.29 59.517 102.34 59.4675 102.439 59.4675H102.851C102.95 59.4675 102.994 59.517 102.994 59.6159V60.6822H104.121H104.126Z" fill="#2690C1"/>
<path d="M105.508 61.8584C105.508 61.1054 105.958 60.5833 107.316 60.5833C108.674 60.5833 109.124 61.1054 109.124 61.8584V65.4748C109.124 65.5737 109.086 65.6232 108.981 65.6232H108.619C108.509 65.6232 108.476 65.5737 108.47 65.4748L108.448 65.1121C108.157 65.3429 107.596 65.7057 106.788 65.7057C105.854 65.7057 105.403 65.1725 105.403 64.5185V64.0183C105.403 63.3643 105.838 62.8312 106.711 62.8312H108.437V61.9298C108.437 61.4791 108.195 61.1549 107.299 61.1549C106.404 61.1549 106.156 61.4571 106.156 61.9078V62.0287C106.156 62.1387 106.118 62.1881 106.008 62.1881H105.645C105.546 62.1881 105.502 62.1387 105.502 62.0287V61.8584H105.508ZM108.443 64.5625V63.3863H106.843C106.299 63.3863 106.079 63.6666 106.079 64.1118V64.4305C106.079 64.8702 106.349 65.1231 106.953 65.1231C107.679 65.1231 108.212 64.7438 108.443 64.5625Z" fill="#2690C1"/>
<path d="M111.344 65.4747C111.344 65.5736 111.305 65.6231 111.201 65.6231H110.8C110.69 65.6231 110.651 65.5736 110.651 65.4747V58.7529C110.651 58.654 110.69 58.6045 110.8 58.6045H111.201C111.3 58.6045 111.344 58.654 111.344 58.7529V65.4747Z" fill="#2690C1"/>
<path d="M115.443 65.6231C115.355 65.6231 115.312 65.5736 115.312 65.4747V58.9453C115.312 58.8463 115.35 58.7969 115.454 58.7969H118.879C118.977 58.7969 119.027 58.8354 119.027 58.9453V59.2586C119.027 59.3685 118.977 59.4069 118.879 59.4069H116.015V61.7483H118.697C118.807 61.7483 118.846 61.7868 118.846 61.8967V62.188C118.846 62.2979 118.807 62.3364 118.697 62.3364H116.015V65.0075H118.999C119.098 65.0075 119.153 65.046 119.153 65.1504V65.4692C119.153 65.5791 119.104 65.6176 118.999 65.6176H115.443V65.6231Z" fill="#2690C1"/>
<path d="M121.051 60.814L121.073 61.1932C121.353 60.9514 121.936 60.5776 122.793 60.5776C123.727 60.5776 124.178 61.0998 124.178 61.8143V65.4692C124.178 65.5681 124.14 65.6176 124.035 65.6176H123.634C123.535 65.6176 123.48 65.5681 123.48 65.4692V61.9627C123.48 61.512 123.238 61.1987 122.595 61.1987C121.853 61.1987 121.309 61.5779 121.078 61.7593V65.4692C121.078 65.5681 121.04 65.6176 120.935 65.6176H120.534C120.424 65.6176 120.386 65.5681 120.386 65.4692V60.8085C120.386 60.7095 120.424 60.6601 120.534 60.6601H120.897C121.007 60.6601 121.04 60.7095 121.045 60.8085L121.051 60.814Z" fill="#2690C1"/>
<path d="M127.745 60.6822C127.844 60.6822 127.893 60.7206 127.893 60.8251V61.1054C127.893 61.2043 127.844 61.2538 127.745 61.2538H126.618V64.2602C126.618 64.7328 126.887 65.0351 127.783 65.0351H127.954C128.052 65.0351 128.102 65.0736 128.102 65.1835V65.4748C128.102 65.5847 128.052 65.6232 127.954 65.6232H127.69C126.316 65.6232 125.914 65.1395 125.914 64.3261V61.2538H125.31C125.211 61.2538 125.167 61.2043 125.167 61.1054V60.8635C125.167 60.7646 125.205 60.7207 125.31 60.7152L125.832 60.6822H125.914V59.6159C125.914 59.517 125.964 59.4675 126.063 59.4675H126.475C126.574 59.4675 126.618 59.517 126.618 59.6159V60.6822H127.745Z" fill="#2690C1"/>
<path d="M132.685 63.1114C132.685 63.1993 132.647 63.2543 132.543 63.2543H129.701V64.37C129.701 64.8316 129.943 65.1449 130.866 65.1449C131.79 65.1449 132.031 64.8316 132.031 64.37V64.1996C132.031 64.1007 132.07 64.0567 132.174 64.0567H132.537C132.636 64.0567 132.685 64.0952 132.685 64.1996V64.4084C132.685 65.1834 132.235 65.7055 130.85 65.7055C129.465 65.7055 129.02 65.1834 129.02 64.4084V61.8747C129.02 61.0998 129.481 60.5776 130.866 60.5776C132.251 60.5776 132.685 61.0998 132.685 61.8747V63.1114ZM129.701 62.7211H132.031V61.9187C132.031 61.468 131.751 61.1437 130.866 61.1437C129.981 61.1437 129.701 61.4625 129.701 61.9187V62.7211Z" fill="#2690C1"/>
<path d="M136.566 60.7317V61.0614C136.566 61.1603 136.505 61.2098 136.407 61.2098C135.654 61.2428 135.011 61.6825 134.769 61.8858V65.4748C134.769 65.5737 134.73 65.6232 134.626 65.6232H134.225C134.115 65.6232 134.076 65.5737 134.076 65.4748V60.8141C134.076 60.7152 134.115 60.6657 134.225 60.6657H134.587C134.697 60.6657 134.73 60.7152 134.736 60.8141L134.763 61.3087C135.043 61.0449 135.659 60.5833 136.401 60.5833C136.5 60.5833 136.56 60.6327 136.56 60.7317H136.566Z" fill="#2690C1"/>
<path d="M139.578 60.6822C139.677 60.6822 139.726 60.7206 139.726 60.8251V61.1054C139.726 61.2043 139.677 61.2538 139.578 61.2538H138.451V64.2602C138.451 64.7328 138.72 65.0351 139.616 65.0351H139.787C139.885 65.0351 139.935 65.0736 139.935 65.1835V65.4748C139.935 65.5847 139.885 65.6232 139.787 65.6232H139.528C138.154 65.6232 137.747 65.1395 137.747 64.3261V61.2538H137.143C137.044 61.2538 137 61.2043 137 61.1054V60.8635C137 60.7646 137.038 60.7207 137.143 60.7152L137.665 60.6822H137.747V59.6159C137.747 59.517 137.797 59.4675 137.896 59.4675H138.308C138.407 59.4675 138.451 59.517 138.451 59.6159V60.6822H139.578Z" fill="#2690C1"/>
<path d="M140.957 61.8584C140.957 61.1054 141.408 60.5833 142.765 60.5833C144.123 60.5833 144.573 61.1054 144.573 61.8584V65.4748C144.573 65.5737 144.535 65.6232 144.431 65.6232H144.068C143.958 65.6232 143.925 65.5737 143.919 65.4748L143.897 65.1121C143.606 65.3429 143.045 65.7057 142.238 65.7057C141.303 65.7057 140.853 65.1725 140.853 64.5185V64.0183C140.853 63.3643 141.287 62.8312 142.161 62.8312H143.886V61.9298C143.886 61.4791 143.645 61.1549 142.749 61.1549C141.853 61.1549 141.606 61.4571 141.606 61.9078V62.0287C141.606 62.1387 141.567 62.1881 141.457 62.1881H141.094C140.995 62.1881 140.951 62.1387 140.951 62.0287V61.8584H140.957ZM143.892 64.5625V63.3863H142.293C141.748 63.3863 141.529 63.6666 141.529 64.1118V64.4305C141.529 64.8702 141.798 65.1231 142.402 65.1231C143.128 65.1231 143.661 64.7438 143.892 64.5625Z" fill="#2690C1"/>
<path d="M146.794 59.6872C146.794 59.7862 146.756 59.8356 146.651 59.8356H146.25C146.14 59.8356 146.102 59.7862 146.102 59.6872V58.7529C146.102 58.654 146.14 58.6045 146.25 58.6045H146.651C146.75 58.6045 146.794 58.654 146.794 58.7529V59.6872ZM146.794 65.4747C146.794 65.5736 146.756 65.6231 146.651 65.6231H146.25C146.14 65.6231 146.102 65.5736 146.102 65.4747V60.8139C146.102 60.715 146.14 60.6655 146.25 60.6655H146.651C146.75 60.6655 146.794 60.715 146.794 60.8139V65.4747Z" fill="#2690C1"/>
<path d="M149.054 60.814L149.076 61.1932C149.356 60.9514 149.939 60.5776 150.796 60.5776C151.73 60.5776 152.181 61.0998 152.181 61.8143V65.4692C152.181 65.5681 152.143 65.6176 152.038 65.6176H151.637C151.538 65.6176 151.483 65.5681 151.483 65.4692V61.9627C151.483 61.512 151.241 61.1987 150.598 61.1987C149.856 61.1987 149.312 61.5779 149.081 61.7593V65.4692C149.081 65.5681 149.043 65.6176 148.938 65.6176H148.537C148.427 65.6176 148.389 65.5681 148.389 65.4692V60.8085C148.389 60.7095 148.427 60.6601 148.537 60.6601H148.9C149.01 60.6601 149.043 60.7095 149.048 60.8085L149.054 60.814Z" fill="#2690C1"/>
<path d="M154.219 60.6601C154.328 60.6601 154.367 60.7095 154.367 60.8085L154.378 61.1822C154.647 60.9514 155.191 60.5776 156.049 60.5776C156.719 60.5776 157.142 60.8469 157.324 61.2592C157.577 61.0503 158.115 60.5776 159.083 60.5776C160.05 60.5776 160.479 61.0998 160.479 61.8143V65.4692C160.479 65.5681 160.429 65.6176 160.33 65.6176H159.929C159.83 65.6176 159.781 65.5681 159.781 65.4692V61.9627C159.781 61.512 159.539 61.1987 158.896 61.1987C158.121 61.1987 157.621 61.5999 157.428 61.7813C157.439 61.8308 157.439 61.9022 157.439 61.9627V65.4692C157.439 65.5681 157.401 65.6176 157.296 65.6176H156.895C156.796 65.6176 156.747 65.5681 156.747 65.4692V61.9627C156.747 61.512 156.505 61.1987 155.862 61.1987C155.12 61.1987 154.614 61.5779 154.405 61.7593V65.4692C154.405 65.5681 154.367 65.6176 154.263 65.6176H153.861C153.751 65.6176 153.713 65.5681 153.713 65.4692V60.8085C153.713 60.7095 153.751 60.6601 153.861 60.6601H154.224H154.219Z" fill="#2690C1"/>
<path d="M165.564 63.1114C165.564 63.1993 165.526 63.2543 165.421 63.2543H162.58V64.37C162.58 64.8316 162.821 65.1449 163.745 65.1449C164.668 65.1449 164.91 64.8316 164.91 64.37V64.1996C164.91 64.1007 164.948 64.0567 165.053 64.0567H165.416C165.515 64.0567 165.564 64.0952 165.564 64.1996V64.4084C165.564 65.1834 165.113 65.7055 163.723 65.7055C162.332 65.7055 161.893 65.1834 161.893 64.4084V61.8747C161.893 61.0998 162.354 60.5776 163.739 60.5776C165.124 60.5776 165.559 61.0998 165.559 61.8747V63.1114H165.564ZM162.58 62.7211H164.91V61.9187C164.91 61.468 164.63 61.1437 163.745 61.1437C162.86 61.1437 162.58 61.4625 162.58 61.9187V62.7211Z" fill="#2690C1"/>
<path d="M167.613 60.814L167.635 61.1932C167.915 60.9514 168.498 60.5776 169.355 60.5776C170.289 60.5776 170.74 61.0998 170.74 61.8143V65.4692C170.74 65.5681 170.701 65.6176 170.597 65.6176H170.196C170.097 65.6176 170.047 65.5681 170.047 65.4692V61.9627C170.047 61.512 169.806 61.1987 169.163 61.1987C168.421 61.1987 167.876 61.5779 167.646 61.7593V65.4692C167.646 65.5681 167.607 65.6176 167.503 65.6176H167.102C166.992 65.6176 166.953 65.5681 166.953 65.4692V60.8085C166.953 60.7095 166.992 60.6601 167.102 60.6601H167.464C167.574 60.6601 167.607 60.7095 167.613 60.8085V60.814Z" fill="#2690C1"/>
<path d="M174.308 60.6822C174.407 60.6822 174.456 60.7206 174.456 60.8251V61.1054C174.456 61.2043 174.407 61.2538 174.308 61.2538H173.181V64.2602C173.181 64.7328 173.45 65.0351 174.346 65.0351H174.517C174.616 65.0351 174.665 65.0736 174.665 65.1835V65.4748C174.665 65.5847 174.616 65.6232 174.517 65.6232H174.253C172.879 65.6232 172.472 65.1395 172.472 64.3261V61.2538H171.867C171.769 61.2538 171.725 61.2043 171.725 61.1054V60.8635C171.725 60.7646 171.763 60.7207 171.867 60.7152L172.39 60.6822H172.472V59.6159C172.472 59.517 172.522 59.4675 172.62 59.4675H173.033C173.132 59.4675 173.176 59.517 173.176 59.6159V60.6822H174.302H174.308Z" fill="#2690C1"/>
</svg>
